<?xml version="1.0" encoding="utf-8"?>
<!-- Generator: Adobe Illustrator 16.0.0, SVG Export Plug-In . SVG Version: 6.00 Build 0)  -->
<!DOCTYPE svg PUBLIC "-//W3C//DTD SVG 1.1//EN" "http://www.w3.org/Graphics/SVG/1.1/DTD/svg11.dtd">
<svg version="1.1" id="Capa_1" xmlns="http://www.w3.org/2000/svg" xmlns:xlink="http://www.w3.org/1999/xlink" x="0px" y="0px"
	 width="349.998px" height="251.674px" viewBox="0 281.869 349.998 251.674" enable-background="new 0 281.869 349.998 251.674"
	 xml:space="preserve">
<g>
	<g>
		<path d="M175,281.869c-29.369,0-53.261,23.891-53.261,53.261S145.63,388.392,175,388.392c29.371,0,53.261-23.893,53.261-53.262
			C228.261,305.763,204.371,281.869,175,281.869z M175,373.174c-20.969,0-38.043-17.073-38.043-38.043
			c0-20.969,17.073-38.044,38.043-38.044s38.042,17.074,38.042,38.043C213.042,356.101,195.97,373.174,175,373.174z"/>
	</g>
</g>
<g>
	<g>
		<path d="M281.521,342.739c-20.971,0-38.043,17.072-38.043,38.043c0,20.969,17.072,38.043,38.043,38.043
			s38.045-17.074,38.045-38.043S302.492,342.739,281.521,342.739z M281.521,403.608c-12.585,0-22.826-10.241-22.826-22.826
			s10.241-22.826,22.826-22.826c12.586,0,22.826,10.241,22.826,22.826C304.348,393.368,294.105,403.608,281.521,403.608z"/>
	</g>
</g>
<g>
	<g>
		<path d="M69.559,342.739c-20.985,0-38.043,17.072-38.043,38.043c0,20.969,17.074,38.043,38.043,38.043
			c20.969,0,38.043-17.074,38.043-38.043S90.543,342.739,69.559,342.739z M69.559,403.608c-12.585,0-22.826-10.241-22.826-22.826
			s10.241-22.826,22.826-22.826s22.826,10.241,22.826,22.826C92.385,393.368,82.143,403.608,69.559,403.608z"/>
	</g>
</g>
<g>
	<g>
		<path d="M175,403.608c-54.539,0-98.913,44.374-98.913,98.913c0,4.198,3.409,7.607,7.609,7.607c4.2,0,7.609-3.409,7.609-7.607
			c0-46.154,37.541-83.695,83.695-83.695c46.155,0,83.696,37.541,83.696,83.695c0,4.198,3.408,7.607,7.608,7.607
			c4.199,0,7.607-3.409,7.607-7.607C273.914,447.982,229.541,403.608,175,403.608z"/>
	</g>
</g>
<g>
	<g>
		<path d="M281.521,434.044c-12.521,0-24.789,3.424-35.473,9.892c-3.574,2.19-4.731,6.862-2.557,10.454
			c2.205,3.594,6.862,4.732,10.453,2.559c8.293-5.038,17.82-7.688,27.574-7.688c29.369,0,53.262,23.893,53.262,53.263
			c0,4.198,3.408,7.607,7.607,7.607c4.201,0,7.609-3.409,7.609-7.607C350,464.768,319.277,434.044,281.521,434.044z"/>
	</g>
</g>
<g>
	<g>
		<path d="M103.935,443.92c-10.667-6.452-22.933-9.876-35.457-9.876C30.724,434.044,0,464.768,0,502.521
			c0,4.198,3.409,7.607,7.609,7.607c4.2,0,7.609-3.409,7.609-7.607c0-29.37,23.891-53.263,53.26-53.263
			c9.755,0,19.28,2.647,27.559,7.67c3.576,2.178,8.263,1.034,10.455-2.557C108.683,450.782,107.526,446.11,103.935,443.92z"/>
	</g>
</g>
<g>
	<g id="add-circle-outline">
		<path d="M176,438.195c-26.222,0-47.674,21.453-47.674,47.674s21.453,47.674,47.674,47.674s47.674-21.453,47.674-47.674
			S202.221,438.195,176,438.195z M176,524.009c-20.978,0-38.14-17.163-38.14-38.14c0-20.978,17.162-38.141,38.14-38.141
			s38.14,17.163,38.14,38.141C214.139,506.846,196.977,524.009,176,524.009z"/>
		<g>
			<g>
				<path d="M199.73,473.022c-1.391-1.466-3.709-1.53-5.177-0.137l-23.376,22.17l-11.15-11.448c-1.412-1.449-3.728-1.48-5.178-0.068
					c-1.449,1.411-1.479,3.729-0.068,5.178l13.671,14.036c0.716,0.735,1.668,1.107,2.623,1.107c0.906,0,1.812-0.336,2.521-1.006
					l25.999-24.655C201.06,476.808,201.122,474.49,199.73,473.022z"/>
			</g>
		</g>
	</g>
</g>
</svg>
