<?xml version="1.0" encoding="utf-8"?>
<!-- Generator: Adobe Illustrator 16.0.0, SVG Export Plug-In . SVG Version: 6.00 Build 0)  -->
<!DOCTYPE svg PUBLIC "-//W3C//DTD SVG 1.1//EN" "http://www.w3.org/Graphics/SVG/1.1/DTD/svg11.dtd">
<svg version="1.1" id="Capa_1" xmlns="http://www.w3.org/2000/svg" xmlns:xlink="http://www.w3.org/1999/xlink" x="0px" y="0px"
	 width="349.995px" height="251.674px" viewBox="0 281.869 349.995 251.674" enable-background="new 0 281.869 349.995 251.674"
	 xml:space="preserve">
<g>
	<g>
		<path d="M175,281.869c-29.369,0-53.261,23.891-53.261,53.261S145.63,388.392,175,388.392c29.371,0,53.262-23.893,53.262-53.262
			C228.262,305.763,204.371,281.869,175,281.869z M175,373.174c-20.969,0-38.043-17.073-38.043-38.043
			c0-20.969,17.073-38.044,38.043-38.044c20.971,0,38.042,17.074,38.042,38.043C213.042,356.101,195.971,373.174,175,373.174z"/>
	</g>
</g>
<g>
	<g>
		<path d="M281.521,342.739c-20.972,0-38.043,17.072-38.043,38.043c0,20.969,17.071,38.043,38.043,38.043
			s38.046-17.074,38.046-38.043S302.492,342.739,281.521,342.739z M281.521,403.608c-12.584,0-22.826-10.241-22.826-22.826
			s10.242-22.826,22.826-22.826c12.586,0,22.826,10.241,22.826,22.826C304.35,393.368,294.104,403.608,281.521,403.608z"/>
	</g>
</g>
<g>
	<g>
		<path d="M69.559,342.739c-20.985,0-38.043,17.072-38.043,38.043c0,20.969,17.074,38.043,38.043,38.043
			c20.969,0,38.043-17.074,38.043-38.043S90.543,342.739,69.559,342.739z M69.559,403.608c-12.585,0-22.826-10.241-22.826-22.826
			s10.241-22.826,22.826-22.826s22.826,10.241,22.826,22.826C92.385,393.368,82.143,403.608,69.559,403.608z"/>
	</g>
</g>
<g>
	<g>
		<path d="M175,403.608c-54.539,0-98.913,44.374-98.913,98.913c0,4.196,3.409,7.605,7.609,7.605c4.2,0,7.609-3.409,7.609-7.605
			c0-46.154,37.541-83.695,83.695-83.695c46.154,0,83.695,37.541,83.695,83.695c0,4.196,3.408,7.605,7.607,7.605
			s7.607-3.409,7.607-7.605C273.914,447.982,229.541,403.608,175,403.608z"/>
	</g>
</g>
<g>
	<g>
		<path d="M281.521,434.044c-12.521,0-24.789,3.424-35.474,9.892c-3.573,2.19-4.729,6.862-2.557,10.454
			c2.204,3.596,6.86,4.732,10.452,2.561c8.293-5.038,17.82-7.688,27.574-7.688c29.368,0,53.263,23.895,53.263,53.265
			c0,4.196,3.407,7.605,7.605,7.605c4.201,0,7.609-3.409,7.609-7.605C350,464.768,319.277,434.044,281.521,434.044z"/>
	</g>
</g>
<g>
	<g>
		<path d="M103.935,443.92c-10.667-6.452-22.933-9.876-35.457-9.876C30.724,434.044,0,464.768,0,502.521
			c0,4.196,3.409,7.605,7.609,7.605c4.2,0,7.609-3.409,7.609-7.605c0-29.37,23.891-53.265,53.26-53.265
			c9.755,0,19.28,2.647,27.559,7.67c3.576,2.18,8.263,1.034,10.455-2.557C108.683,450.782,107.526,446.11,103.935,443.92z"/>
	</g>
</g>
<path d="M176.027,438.567c-26.265,0-47.634,21.368-47.634,47.634s21.368,47.635,47.634,47.635s47.635-21.369,47.635-47.635
	S202.293,438.567,176.027,438.567z M137.94,486.201c0-8.214,2.638-15.809,7.076-22.035l53.045,53.046
	c-6.227,4.438-13.82,7.079-22.034,7.079C155.025,524.291,137.94,507.205,137.94,486.201z M207.04,508.235l-53.047-53.045
	c6.228-4.437,13.822-7.079,22.036-7.079c21.002,0,38.089,17.086,38.089,38.09C214.116,494.415,211.476,502.009,207.04,508.235
	L207.04,508.235z"/>
</svg>
