<?xml version="1.0" encoding="utf-8"?>
<!-- Generator: Adobe Illustrator 16.0.0, SVG Export Plug-In . SVG Version: 6.00 Build 0)  -->
<!DOCTYPE svg PUBLIC "-//W3C//DTD SVG 1.1//EN" "http://www.w3.org/Graphics/SVG/1.1/DTD/svg11.dtd">
<svg version="1.1" id="Capa_1" xmlns="http://www.w3.org/2000/svg" xmlns:xlink="http://www.w3.org/1999/xlink" x="0px" y="0px"
	 width="349.999px" height="251.674px" viewBox="0 281.869 349.999 251.674" enable-background="new 0 281.869 349.999 251.674"
	 xml:space="preserve">
<g>
	<g>
		<path d="M175,281.869c-29.369,0-53.261,23.891-53.261,53.261S145.63,388.391,175,388.391c29.37,0,53.261-23.892,53.261-53.261
			C228.261,305.762,204.37,281.869,175,281.869z M175,373.174c-20.969,0-38.043-17.074-38.043-38.043S154.03,297.087,175,297.087
			s38.043,17.074,38.043,38.043C213.043,356.1,195.97,373.174,175,373.174z"/>
	</g>
</g>
<g>
	<g>
		<path d="M281.521,342.739c-20.97,0-38.043,17.073-38.043,38.043c0,20.969,17.073,38.043,38.043,38.043
			s38.044-17.074,38.044-38.043C319.565,359.813,302.491,342.739,281.521,342.739z M281.521,403.608
			c-12.585,0-22.826-10.241-22.826-22.826s10.241-22.826,22.826-22.826c12.586,0,22.826,10.241,22.826,22.826
			C304.348,393.368,294.105,403.608,281.521,403.608z"/>
	</g>
</g>
<g>
	<g>
		<path d="M69.559,342.739c-20.985,0-38.043,17.073-38.043,38.043c0,20.969,17.074,38.043,38.043,38.043
			c20.969,0,38.043-17.074,38.043-38.043C107.602,359.813,90.543,342.739,69.559,342.739z M69.559,403.608
			c-12.585,0-22.826-10.241-22.826-22.826s10.241-22.826,22.826-22.826s22.826,10.241,22.826,22.826
			C92.385,393.368,82.143,403.608,69.559,403.608z"/>
	</g>
</g>
<g>
	<g>
		<path d="M175,403.608c-54.539,0-98.913,44.374-98.913,98.913c0,4.199,3.409,7.608,7.609,7.608c4.2,0,7.609-3.409,7.609-7.608
			c0-46.154,37.541-83.695,83.695-83.695c46.155,0,83.696,37.541,83.696,83.695c0,4.199,3.408,7.608,7.608,7.608
			s7.608-3.409,7.608-7.608C273.913,447.982,229.54,403.608,175,403.608z"/>
	</g>
</g>
<g>
	<g>
		<path d="M281.521,434.044c-12.522,0-24.789,3.424-35.472,9.892c-3.575,2.19-4.732,6.862-2.557,10.454
			c2.205,3.593,6.862,4.732,10.453,2.558c8.293-5.038,17.82-7.687,27.574-7.687c29.369,0,53.262,23.892,53.262,53.262
			c0,4.199,3.408,7.608,7.607,7.608c4.201,0,7.609-3.409,7.609-7.608C350,464.768,319.276,434.044,281.521,434.044z"/>
	</g>
</g>
<g>
	<g>
		<path d="M103.935,443.92c-10.667-6.452-22.933-9.876-35.457-9.876C30.724,434.044,0,464.768,0,502.521
			c0,4.199,3.409,7.608,7.609,7.608c4.2,0,7.609-3.409,7.609-7.608c0-29.37,23.891-53.262,53.26-53.262
			c9.755,0,19.28,2.647,27.559,7.67c3.576,2.177,8.263,1.034,10.455-2.557C108.683,450.782,107.526,446.11,103.935,443.92z"/>
	</g>
</g>
<g>
	<g id="add-circle-outline">
		<path d="M180.767,462.032h-9.534v19.069h-19.07v9.535h19.07v19.069h9.534v-19.069h19.07v-9.535h-19.07V462.032z M176,438.195
			c-26.222,0-47.675,21.453-47.675,47.674s21.453,47.674,47.675,47.674c26.221,0,47.674-21.453,47.674-47.674
			S202.221,438.195,176,438.195z M176,524.009c-20.978,0-38.14-17.163-38.14-38.14s17.162-38.14,38.14-38.14
			c20.977,0,38.139,17.163,38.139,38.14S196.977,524.009,176,524.009z"/>
	</g>
</g>
</svg>
